<svg height="511pt" viewBox="-25 1 511 511.99933" width="511pt" xmlns="http://www.w3.org/2000/svg"><path d="m9.058594 273.066406 8.53125 110.933594h102.402344l8.53125-110.933594c-19.574219-4.828125-39.585938-7.683594-59.730469-8.535156-20.148438.851562-40.160157 3.710938-59.734375 8.535156zm0 0" fill="#ff7956"/><path d="m17.589844 384h102.402344v34.132812h-102.402344zm0 0" fill="#ff6243"/><path d="m171.191406 273.066406 8.53125 110.933594h102.402344l8.535156-110.933594c-19.578125-4.828125-39.589844-7.683594-59.734375-8.535156-20.148437.851562-40.15625 3.710938-59.734375 8.535156zm0 0" fill="#ff7956"/><path d="m179.722656 384h102.402344v34.132812h-102.402344zm0 0" fill="#ff6243"/><path d="m333.324219 273.066406 8.535156 110.933594h102.398437l8.535157-110.933594c-19.578125-4.828125-39.589844-7.683594-59.734375-8.535156-20.148438.851562-40.15625 3.710938-59.734375 8.535156zm0 0" fill="#ff7956"/><path d="m341.859375 384h102.398437v34.132812h-102.398437zm0 0" fill="#ff6243"/><path d="m205.324219 179.199219h51.199219v51.199219h-51.199219zm0 0" fill="#57565c"/><path d="m94.390625 8.535156v170.664063h273.066406v-170.664063zm136.535156 136.53125c-28.277343 0-51.203125-22.921875-51.203125-51.199218 0-28.277344 22.925782-51.199219 51.203125-51.199219 28.277344 0 51.199219 22.921875 51.199219 51.199219.070312 28.207031-22.738281 51.128906-50.945312 51.199218-.085938 0-.171876 0-.253907 0zm0 0" fill="#ffeb99"/><path d="m230.925781 93.867188v-51.199219c-28.277343 0-51.203125 22.921875-51.203125 51.199219 0 28.277343 22.925782 51.199218 51.203125 51.199218 28.277344 0 51.199219-22.921875 51.199219-51.199218zm0 0" fill="#ff7956"/><path d="m267.128906 57.660156c-9.59375-9.613281-22.621094-15.007812-36.203125-14.992187v51.199219h51.199219c.015625-13.582032-5.378906-26.613282-14.996094-36.207032zm0 0" fill="#ffb655"/><g fill="#2d2d30"><path d="m130.597656 264.789062c-20.25-5.015624-40.960937-7.960937-61.804687-8.789062-20.847657.828125-41.558594 3.773438-61.808594 8.789062-4.046875 1-6.777344 4.777344-6.460937 8.933594l8.535156 110.609375v127.667969h17.066406v-85.332031h85.332031v85.332031h17.066407v-127.667969l8.535156-110.609375c.316406-4.15625-2.414063-7.933594-6.460938-8.933594zm-61.804687 8.277344c17.058593.609375 34.023437 2.84375 50.660156 6.671875l-7.363281 95.726563h-86.597656l-7.363282-95.726563c16.636719-3.828125 33.601563-6.0625 50.664063-6.671875zm-42.667969 119.464844h85.332031v17.070312h-85.332031zm0 0"/><path d="m292.730469 264.789062c-20.25-5.015624-40.960938-7.960937-61.804688-8.789062-20.847656.828125-41.558593 3.773438-61.808593 8.789062-4.046876 1-6.777344 4.777344-6.460938 8.933594l8.535156 110.609375v127.667969h17.066406v-85.332031h85.332032v85.332031h17.066406v-127.667969l8.535156-110.609375c.316406-4.15625-2.414062-7.933594-6.460937-8.933594zm-61.804688 8.277344c17.058594.609375 34.023438 2.84375 50.660157 6.671875l-7.363282 95.726563h-86.597656l-7.363281-95.726563c16.636719-3.828125 33.601562-6.0625 50.664062-6.671875zm-42.667969 119.464844h85.332032v17.070312h-85.332032zm0 0"/><path d="m461.324219 273.722656c.320312-4.148437-2.398438-7.921875-6.433594-8.933594-20.261719-5.015624-40.976563-7.960937-61.832031-8.789062-20.847656.828125-41.554688 3.773438-61.808594 8.789062-4.046875 1-6.777344 4.777344-6.457031 8.933594l8.53125 110.609375v127.667969h17.066406v-85.332031h85.335937v85.332031h17.066407v-127.667969zm-68.265625-.65625c17.058594.609375 34.023437 2.84375 50.660156 6.671875l-7.363281 95.726563h-86.597657l-7.363281-95.726563c16.636719-3.828125 33.601563-6.0625 50.664063-6.671875zm-42.667969 119.464844h85.332031v17.070312h-85.332031zm0 0"/><path d="m265.058594 187.734375h102.398437c4.714844 0 8.535157-3.820313 8.535157-8.535156v-170.664063c0-4.714844-3.820313-8.535156-8.535157-8.535156h-273.066406c-4.710937 0-8.535156 3.820312-8.535156 8.535156v170.664063c0 4.714843 3.820312 8.535156 8.535156 8.535156h102.402344v34.132813h-34.136719v17.066406h136.535156v-17.066406h-34.132812zm-162.132813-170.667969h256v153.601563h-256zm110.933594 204.800782v-34.132813h34.132813v34.132813zm0 0"/><path d="m230.925781 153.601562c32.921875.074219 59.671875-26.554687 59.75-59.480468.027344-12.96875-4.171875-25.59375-11.964843-35.957032l6.945312-6.964843h13.535156v-17.066407h-17.066406c-2.265625 0-4.433594.898438-6.035156 2.5l-9.460938 9.445313c-26.296875-19.800781-63.667968-14.535156-83.472656 11.761719-14.628906 19.425781-15.988281 45.796875-3.433594 66.625l-12.0625 12.066406h-13.535156v17.066406h17.066406c2.261719 0 4.433594-.898437 6.03125-2.5l13.339844-13.328125c10.980469 10.171875 25.394531 15.824219 40.363281 15.832031zm31.632813-79.300781 3.925781-3.925781c3.027344 4.535156 5.152344 9.617188 6.253906 14.957031h-33.28125v-33.277343c5.34375 1.097656 10.421875 3.21875 14.957031 6.246093l-3.921874 3.925781zm-74.300782 19.566407c.023438-20.269532 14.28125-37.730469 34.132813-41.8125v41.8125c0 4.710937 3.820313 8.53125 8.535156 8.53125h41.8125c-4.585937 22.984374-26.9375 37.898437-49.921875 33.3125-7.488281-1.492188-14.433594-4.980469-20.105468-10.089844l8.65625-8.652344-12.066407-12.066406-6.929687 6.925781c-2.679688-5.609375-4.082032-11.742187-4.113282-17.960937zm0 0"/><path d="m316.257812 34.132812h17.066407v17.066407h-17.066407zm0 0"/><path d="m119.992188 136.535156h17.066406v17.066406h-17.066406zm0 0"/></g></svg>